HIERARCHY
ROOT Hips
{
 OFFSET 0.000000 0.000000 0.000000
 CHANNELS 6 Xposition Yposition Zposition Yrotation Xrotation Zrotation
 JOINT Chest
 {
  OFFSET 0.000000 9.585900 0.002600
  CHANNELS 3 Yrotation Xrotation Zrotation
  JOINT Chest2
  {
   OFFSET 0.000000 9.601200 -0.005300
   CHANNELS 3 Yrotation Xrotation Zrotation
   JOINT Chest3
   {
    OFFSET 0.000000 9.561800 0.000000
    CHANNELS 3 Yrotation Xrotation Zrotation
    JOINT Chest4
    {
     OFFSET 0.000000 9.552100 0.000000
     CHANNELS 3 Yrotation Xrotation Zrotation
     JOINT Neck
     {
      OFFSET 0.000000 14.453000 0.000000
      CHANNELS 3 Yrotation Xrotation Zrotation
      JOINT Head
      {
       OFFSET 0.000000 8.936500 -0.011300
       CHANNELS 3 Yrotation Xrotation Zrotation
       End Site
       {
        OFFSET 0.000000 17.073600 -0.006000
       }
      }
     }
     JOINT RightCollar
     {
      OFFSET -2.921100 9.558500 0.000000
      CHANNELS 3 Yrotation Xrotation Zrotation
      JOINT RightShoulder
      {
       OFFSET -13.519700 0.000000 0.000000
       CHANNELS 3 Yrotation Xrotation Zrotation
       JOINT RightElbow
       {
        OFFSET 0.000000 -29.696600 0.000000
        CHANNELS 3 Yrotation Xrotation Zrotation
        JOINT RightWrist
        {
         OFFSET 0.000000 -24.004700 0.000000
         CHANNELS 3 Yrotation Xrotation Zrotation
         End Site
         {
          OFFSET 0.000000 -17.728500 0.000000
         }
        }
       }
      }
     }
     JOINT LeftCollar
     {
      OFFSET 2.921100 9.558500 0.000000
      CHANNELS 3 Yrotation Xrotation Zrotation
      JOINT LeftShoulder
      {
       OFFSET 13.519700 0.000000 0.000000
       CHANNELS 3 Yrotation Xrotation Zrotation
       JOINT LeftElbow
       {
        OFFSET 0.000000 -29.696600 0.000000
        CHANNELS 3 Yrotation Xrotation Zrotation
        JOINT LeftWrist
        {
         OFFSET 0.000000 -24.004700 0.000000
         CHANNELS 3 Yrotation Xrotation Zrotation
         End Site
         {
          OFFSET 0.000000 -17.728500 0.000000
         }
        }
       }
      }
     }
    }
   }
  }
 }
 JOINT RightHip
 {
  OFFSET -7.771700 -0.012900 -0.001300
  CHANNELS 3 Yrotation Xrotation Zrotation
  JOINT RightKnee
  {
   OFFSET 0.000000 -40.869800 0.001200
   CHANNELS 3 Yrotation Xrotation Zrotation
   JOINT RightAnkle
   {
    OFFSET 0.000000 -39.717900 0.002100
    CHANNELS 3 Yrotation Xrotation Zrotation
    JOINT RightToe
    {
     OFFSET 0.000000 -4.965400 11.033500
     CHANNELS 3 Yrotation Xrotation Zrotation
     End Site
     {
      OFFSET 0.000000 -1.423100 5.872300
     }
    }
   }
  }
 }
 JOINT LeftHip
 {
  OFFSET 7.771700 -0.012900 -0.001300
  CHANNELS 3 Yrotation Xrotation Zrotation
  JOINT LeftKnee
  {
   OFFSET 0.000000 -40.869800 0.001200
   CHANNELS 3 Yrotation Xrotation Zrotation
   JOINT LeftAnkle
   {
    OFFSET 0.000000 -39.717900 0.002100
    CHANNELS 3 Yrotation Xrotation Zrotation
    JOINT LeftToe
    {
     OFFSET 0.000000 -4.965400 11.033500
     CHANNELS 3 Yrotation Xrotation Zrotation
     End Site
     {
      OFFSET 0.000000 -1.423100 5.872300
     }
    }
   }
  }
 }
}
MOTION
Frames: 8
Frame Time: 0.008333
-10.773291 59.028078 35.296174 174.984170 -39.454858 1.257999 3.182754 22.652231 3.262514 0.353989 3.252551 0.316788 0.550120 5.295525 0.563066 2.406098 19.067980 2.227983 -0.176223 26.153669 8.112517 -2.071104 13.116265 14.523038 6.605909 0.300657 0.553224 40.694657 -47.700687 -18.204887 48.386785 4.253642 0.170765 11.632168 7.453321 -46.428447 -10.518323 -0.552426 -0.697104 -63.325181 -41.610000 14.835904 -36.600031 13.849814 20.567876 -35.037959 10.935932 26.016354 16.319483 -31.139362 0.633580 -14.454449 71.394816 -17.139185 -2.549478 0.788034 9.978752 -0.399171 0.442643 -0.181486 -3.339312 -32.752005 -1.464441 23.521178 69.235263 14.258548 -24.214801 -2.452248 -9.764245 -0.485251 -0.553709 -0.409032
-10.742717 59.033627 35.248502 174.909968 -39.298978 1.283872 3.175835 22.607895 3.336652 0.390007 3.185795 0.267300 0.519863 5.325039 0.597963 2.381777 19.054773 2.233779 -0.170289 26.186915 7.981756 -2.029782 13.166551 14.287025 6.525613 0.339119 0.585328 40.629746 -47.741050 -18.137685 48.415307 4.047601 0.103177 11.658219 7.488886 -46.845424 -10.517399 -0.522590 -0.701285 -63.332297 -41.602363 14.954803 -36.501170 13.787345 20.548294 -34.964289 10.832659 26.402284 16.256501 -31.293110 0.664910 -14.352517 71.443563 -17.115517 -2.491836 0.742757 9.955945 -0.450867 0.436759 -0.195296 -3.362249 -32.894224 -1.410323 23.407029 69.340663 14.129269 -24.760975 -2.559038 -9.674934 -0.410896 -0.529890 -0.411838
-10.724278 59.045305 35.201107 174.987397 -39.183165 1.294764 3.023651 22.605174 3.322116 0.354157 3.217184 0.301849 0.555177 5.258066 0.546162 2.361043 19.041542 2.238610 -0.166608 26.213246 7.854653 -1.994106 13.204825 14.058293 6.440116 0.374116 0.619806 40.555194 -47.777797 -18.062008 48.424340 3.825530 0.044134 11.703276 7.541535 -47.262014 -10.524110 -0.491997 -0.703927 -63.336779 -41.592968 15.070410 -36.412109 13.727698 20.523742 -34.880870 10.726242 26.791972 16.184038 -31.390269 0.570202 -14.378958 71.528954 -17.095905 -2.564272 0.686498 9.796314 -0.346818 0.423088 -0.130780 -3.445684 -33.000443 -1.460756 23.392566 69.404436 14.082694 -25.165119 -2.657522 -9.603304 -0.274399 -0.496302 -0.383313
-10.698559 59.058036 35.161366 174.974014 -39.059235 1.322903 2.970902 22.571938 3.338236 0.339376 3.231807 0.320232 0.559061 5.229709 0.528556 2.342227 19.029460 2.241772 -0.162980 26.232484 7.729137 -1.959612 13.230260 13.832711 6.360946 0.404806 0.651061 40.479672 -47.803935 -17.987550 48.421160 3.595578 -0.006472 11.754932 7.606123 -47.683259 -10.535226 -0.463264 -0.708707 -63.341852 -41.578099 15.181755 -36.321277 13.665190 20.516150 -34.788880 10.611006 27.159902 16.046728 -31.499528 0.577042 -14.288019 71.580259 -17.074789 -2.555531 0.627176 9.706058 -0.325274 0.425774 -0.114425 -3.577259 -33.103861 -1.422001 23.488491 69.455987 14.084924 -25.390575 -2.778573 -9.530653 -0.196631 -0.447869 -0.367665
-10.669351 59.073450 35.126807 174.921792 -38.945260 1.356412 2.953804 22.550093 3.371558 0.335929 3.227351 0.320622 0.553370 5.222873 0.529132 2.323146 19.020001 2.243050 -0.156881 26.244400 7.605902 -1.921782 13.242105 13.610951 6.292389 0.426801 0.676339 40.408575 -47.817126 -17.918473 48.407983 3.364717 -0.049243 11.808962 7.675700 -48.100433 -10.547597 -0.440670 -0.712653 -63.356641 -41.556673 15.292817 -36.211065 13.608469 20.507668 -34.696170 10.501202 27.527255 15.928421 -31.600434 0.613193 -14.207813 71.608243 -17.073746 -2.524909 0.587614 9.636134 -0.318071 0.428746 -0.113816 -3.614067 -33.196357 -1.399751 23.537925 69.509514 14.118407 -25.531646 -2.905719 -9.472836 -0.149101 -0.405926 -0.351443
-10.648005 59.087265 35.101579 174.897021 -38.803475 1.415725 2.897977 22.505429 3.352250 0.332632 3.224775 0.320942 0.548024 5.218956 0.529569 2.304405 19.015092 2.243374 -0.147706 26.247714 7.486646 -1.880219 13.238175 13.395882 6.230724 0.433582 0.695066 40.342648 -47.820604 -17.851926 48.391443 3.140907 -0.085698 11.866448 7.754386 -48.496000 -10.561298 -0.429736 -0.712197 -63.391804 -41.528605 15.409754 -36.098999 13.528805 20.539583 -34.611512 10.401246 27.826073 15.868271 -31.717753 0.564034 -14.167781 71.628446 -17.070576 -2.509070 0.553533 9.558513 -0.300713 0.436698 -0.106413 -3.599061 -33.311627 -1.439843 23.571186 69.518308 14.150477 -25.652891 -2.991154 -9.416138 -0.122057 -0.372416 -0.336660
-10.627049 59.102785 35.081187 174.857563 -38.670056 1.481823 2.853958 22.472016 3.330726 0.329817 3.224344 0.321306 0.543587 5.218348 0.530064 2.288118 19.015176 2.243546 -0.135713 26.242348 7.372384 -1.835605 13.218548 13.189363 6.174246 0.424175 0.708861 40.286010 -47.818085 -17.790339 48.378487 2.936662 -0.112766 11.922786 7.846396 -48.858277 -10.576981 -0.429907 -0.708445 -63.448114 -41.494292 15.535482 -35.949348 13.509056 20.504448 -34.518400 10.299327 28.196470 15.826180 -31.826981 0.509455 -14.113661 71.640680 -17.041081 -2.486503 0.528239 9.480261 -0.287163 0.442211 -0.101516 -3.545861 -33.413093 -1.493870 23.584481 69.516826 14.186797 -25.722075 -3.079921 -9.357206 -0.109469 -0.337939 -0.329718
-10.598337 59.123050 35.061330 174.764534 -38.579082 1.529617 2.901835 22.431636 3.350713 0.298435 3.274119 0.344487 0.539803 5.220184 0.530718 2.273668 19.018929 2.243919 -0.120549 26.228931 7.263906 -1.787160 13.184270 12.992767 6.126226 0.401869 0.718161 40.249863 -47.811291 -17.743124 48.358551 2.760546 -0.126654 11.977035 7.948108 -49.185341 -10.594919 -0.437884 -0.704102 -63.511709 -41.453678 15.667435 -35.794570 13.502429 20.469666 -34.434924 10.195606 28.549951 15.789490 -31.908060 0.519745 -14.041125 71.644089 -16.984614 -2.437176 0.519846 9.406209 -0.288771 0.432938 -0.110472 -3.463539 -33.468088 -1.512264 23.584476 69.534418 14.262170 -25.746355 -3.214773 -9.313895 -0.093957 -0.298459 -0.326752
